<mxfile host="app.diagrams.net" agent="Mozilla/5.0 (Macintosh; Intel Mac OS X 10_15_7) AppleWebKit/605.1.15 (KHTML, like Gecko) Version/18.5 Safari/605.1.15" version="27.2.0">
  <diagram name="Page-1" id="xPf4PEocFIGsC7FjwBdS">
    <mxGraphModel dx="1795" dy="575" grid="1" gridSize="10" guides="1" tooltips="1" connect="1" arrows="1" fold="1" page="1" pageScale="1" pageWidth="827" pageHeight="1169" math="0" shadow="0">
      <root>
        <mxCell id="0" />
        <mxCell id="1" parent="0" />
        <mxCell id="phxQzrjnDBBb-yf1ucnz-8" value="" style="edgeStyle=orthogonalEdgeStyle;rounded=0;orthogonalLoop=1;jettySize=auto;html=1;" parent="1" source="phxQzrjnDBBb-yf1ucnz-1" target="phxQzrjnDBBb-yf1ucnz-7" edge="1">
          <mxGeometry relative="1" as="geometry" />
        </mxCell>
        <mxCell id="phxQzrjnDBBb-yf1ucnz-1" value="IP Flows review in ALGOSEC" style="rounded=1;whiteSpace=wrap;html=1;" parent="1" vertex="1">
          <mxGeometry x="150" y="140" width="120" height="60" as="geometry" />
        </mxCell>
        <mxCell id="phxQzrjnDBBb-yf1ucnz-3" value="" style="edgeStyle=orthogonalEdgeStyle;rounded=0;orthogonalLoop=1;jettySize=auto;html=1;" parent="1" source="phxQzrjnDBBb-yf1ucnz-2" target="phxQzrjnDBBb-yf1ucnz-1" edge="1">
          <mxGeometry relative="1" as="geometry">
            <Array as="points">
              <mxPoint x="40" y="170" />
            </Array>
          </mxGeometry>
        </mxCell>
        <mxCell id="WG0s2UuzXft0sqPqfHv9-6" value="For each app" style="edgeLabel;html=1;align=center;verticalAlign=middle;resizable=0;points=[];" vertex="1" connectable="0" parent="phxQzrjnDBBb-yf1ucnz-3">
          <mxGeometry x="-0.0168" y="-3" relative="1" as="geometry">
            <mxPoint as="offset" />
          </mxGeometry>
        </mxCell>
        <mxCell id="phxQzrjnDBBb-yf1ucnz-11" value="" style="edgeStyle=orthogonalEdgeStyle;rounded=0;orthogonalLoop=1;jettySize=auto;html=1;" parent="1" source="phxQzrjnDBBb-yf1ucnz-7" target="phxQzrjnDBBb-yf1ucnz-10" edge="1">
          <mxGeometry relative="1" as="geometry" />
        </mxCell>
        <mxCell id="phxQzrjnDBBb-yf1ucnz-7" value="ENC process to add new IPs&amp;nbsp;" style="whiteSpace=wrap;html=1;rounded=1;" parent="1" vertex="1">
          <mxGeometry x="350" y="140" width="120" height="60" as="geometry" />
        </mxCell>
        <mxCell id="phxQzrjnDBBb-yf1ucnz-9" value="" style="edgeStyle=orthogonalEdgeStyle;rounded=0;orthogonalLoop=1;jettySize=auto;html=1;exitX=1;exitY=0.5;exitDx=0;exitDy=0;" parent="1" source="phxQzrjnDBBb-yf1ucnz-4" target="phxQzrjnDBBb-yf1ucnz-7" edge="1">
          <mxGeometry relative="1" as="geometry">
            <mxPoint x="280" y="259.5" as="sourcePoint" />
            <mxPoint x="360" y="259.5" as="targetPoint" />
          </mxGeometry>
        </mxCell>
        <mxCell id="phxQzrjnDBBb-yf1ucnz-13" value="" style="edgeStyle=orthogonalEdgeStyle;rounded=0;orthogonalLoop=1;jettySize=auto;html=1;" parent="1" source="phxQzrjnDBBb-yf1ucnz-10" target="phxQzrjnDBBb-yf1ucnz-12" edge="1">
          <mxGeometry relative="1" as="geometry" />
        </mxCell>
        <mxCell id="phxQzrjnDBBb-yf1ucnz-10" value="App Migration" style="rhombus;whiteSpace=wrap;html=1;rounded=1;" parent="1" vertex="1">
          <mxGeometry x="530" y="239" width="80" height="80" as="geometry" />
        </mxCell>
        <mxCell id="phxQzrjnDBBb-yf1ucnz-12" value="ENC process to remove old IPs as part of decom process&amp;nbsp;" style="whiteSpace=wrap;html=1;rounded=1;" parent="1" vertex="1">
          <mxGeometry x="670" y="140" width="120" height="60" as="geometry" />
        </mxCell>
        <mxCell id="WG0s2UuzXft0sqPqfHv9-1" value="Atlas Cognizant team" style="swimlane;whiteSpace=wrap;html=1;" vertex="1" parent="1">
          <mxGeometry x="110" y="90" width="390" height="130" as="geometry" />
        </mxCell>
        <mxCell id="WG0s2UuzXft0sqPqfHv9-2" value="REVAMP" style="swimlane;whiteSpace=wrap;html=1;" vertex="1" parent="1">
          <mxGeometry x="630" y="90" width="200" height="130" as="geometry" />
        </mxCell>
        <mxCell id="WG0s2UuzXft0sqPqfHv9-3" value="AWS" style="swimlane;horizontal=0;whiteSpace=wrap;html=1;" vertex="1" parent="1">
          <mxGeometry x="-100" y="229" width="930" height="100" as="geometry" />
        </mxCell>
        <mxCell id="phxQzrjnDBBb-yf1ucnz-2" value="Wave planning" style="ellipse;whiteSpace=wrap;html=1;aspect=fixed;" parent="WG0s2UuzXft0sqPqfHv9-3" vertex="1">
          <mxGeometry x="100" y="10" width="80" height="80" as="geometry" />
        </mxCell>
        <mxCell id="phxQzrjnDBBb-yf1ucnz-4" value="IP provisioning in AWS target account" style="whiteSpace=wrap;html=1;rounded=1;" parent="WG0s2UuzXft0sqPqfHv9-3" vertex="1">
          <mxGeometry x="330" y="20" width="120" height="60" as="geometry" />
        </mxCell>
        <mxCell id="WG0s2UuzXft0sqPqfHv9-5" value="" style="edgeStyle=orthogonalEdgeStyle;rounded=0;orthogonalLoop=1;jettySize=auto;html=1;" edge="1" parent="WG0s2UuzXft0sqPqfHv9-3" source="phxQzrjnDBBb-yf1ucnz-2" target="phxQzrjnDBBb-yf1ucnz-4">
          <mxGeometry relative="1" as="geometry" />
        </mxCell>
        <mxCell id="WG0s2UuzXft0sqPqfHv9-7" value="For each app" style="edgeLabel;html=1;align=center;verticalAlign=middle;resizable=0;points=[];" vertex="1" connectable="0" parent="WG0s2UuzXft0sqPqfHv9-5">
          <mxGeometry x="-0.5143" y="-2" relative="1" as="geometry">
            <mxPoint x="18" y="-2" as="offset" />
          </mxGeometry>
        </mxCell>
      </root>
    </mxGraphModel>
  </diagram>
</mxfile>
